<?xml version="1.0" encoding="utf-8"?>
<!-- Generator: Adobe Illustrator 23.0.1, SVG Export Plug-In . SVG Version: 6.00 Build 0)  -->
<!DOCTYPE svg PUBLIC "-//W3C//DTD SVG 1.1//EN" "http://www.w3.org/Graphics/SVG/1.1/DTD/svg11.dtd" [
	<!ENTITY ns_extend "http://ns.adobe.com/Extensibility/1.0/">
	<!ENTITY ns_ai "http://ns.adobe.com/AdobeIllustrator/10.0/">
	<!ENTITY ns_graphs "http://ns.adobe.com/Graphs/1.0/">
	<!ENTITY ns_vars "http://ns.adobe.com/Variables/1.0/">
	<!ENTITY ns_imrep "http://ns.adobe.com/ImageReplacement/1.0/">
	<!ENTITY ns_sfw "http://ns.adobe.com/SaveForWeb/1.0/">
	<!ENTITY ns_custom "http://ns.adobe.com/GenericCustomNamespace/1.0/">
	<!ENTITY ns_adobe_xpath "http://ns.adobe.com/XPath/1.0/">
]>
<svg version="1.1"
	 id="svg8" xmlns:x="&ns_extend;" xmlns:i="&ns_ai;" xmlns:graph="&ns_graphs;" xmlns:cc="http://creativecommons.org/ns#" xmlns:dc="http://purl.org/dc/elements/1.1/" xmlns:inkscape="http://www.inkscape.org/namespaces/inkscape" xmlns:rdf="http://www.w3.org/1999/02/22-rdf-syntax-ns#" xmlns:sodipodi="http://sodipodi.sourceforge.net/DTD/sodipodi-0.dtd" xmlns:svg="http://www.w3.org/2000/svg"
	 xmlns="http://www.w3.org/2000/svg" xmlns:xlink="http://www.w3.org/1999/xlink" x="0px" y="0px" viewBox="0 0 10077.8 8111.7"
	 style="enable-background:new 0 0 10077.8 8111.7;" xml:space="preserve">
<style type="text/css">
	.st0{fill:#EA4335;}
	.st1{fill:#4285F4;}
	.st2{fill:#34A853;}
	.st3{fill:#FBBC05;}
</style>
<metadata  id="metadata5">
	<rdf:RDF>
		<cc:Work  rdf:about="">
			<dc:format>image/svg+xml</dc:format>
			<dc:type  rdf:resource="http://purl.org/dc/dcmitype/StillImage"></dc:type>
			<dc:title></dc:title>
		</cc:Work>
	</rdf:RDF>
	<sfw  xmlns="&ns_sfw;">
		<slices></slices>
		<sliceSourceBounds  bottomLeftOrigin="true" height="8111.7" width="10077.8" x="-5026.6" y="-4045.9"></sliceSourceBounds>
	</sfw>
</metadata>
<sodipodi:namedview  bordercolor="#666666" borderopacity="1.0" fit-margin-bottom="0" fit-margin-left="0" fit-margin-right="0" fit-margin-top="0" id="base" inkscape:current-layer="layer1" inkscape:cx="104.94097" inkscape:cy="5.2159824" inkscape:document-units="mm" inkscape:pageopacity="0.0" inkscape:pageshadow="2" inkscape:window-height="705" inkscape:window-maximized="1" inkscape:window-width="1366" inkscape:window-x="-8" inkscape:window-y="-8" inkscape:zoom="2" pagecolor="#ffffff" showgrid="false">
	</sodipodi:namedview>
<g>
	<path class="st0" d="M6394.8,2233.4h307.3l875.9-875.9l43-372C5990.7-453.7,3502.6-298.3,2063.5,1332
		c-399.9,452.5-689.6,991.5-848.1,1574.7c97.4-39.9,205.7-46.6,307.3-18.1l1751.9-289.2c0,0,88.9-147.6,135.5-138.5
		c779.2-856,2090.7-955.8,2990.8-227.5H6394.8z"/>
	<path class="st1" d="M8826.1,2906.7C8624.6,2165,8211.5,1498.4,7636.8,989.1L6407.5,2218.3c519,424.1,814.8,1063.5,802.1,1733.7
		v218.4c604.3,0,1094.3,490,1094.3,1094.3s-490,1094.3-1094.3,1094.3H5021l-218.4,221.4v1312.7l218.4,218.4h2188.7
		c1571.6,12.1,2855.9-1252.2,2868-2823.8C10085,4333.1,9614.9,3440.3,8826.1,2906.7z"/>
	<path class="st2" d="M2829.3,8097.7H5018V6345.8H2829.3c-156.1,0-309.7-33.9-451.9-98.6l-307.3,95.6l-882,875.9l-76.8,307.3
		C1605.6,7899.8,2209.3,8100.7,2829.3,8097.7z"/>
	<path class="st3" d="M2829.3,2414.9C1257.1,2424-9,3705.8,0,5278.1c5.4,877.8,415,1704.1,1111.3,2238.9l1269.2-1269.2
		c-550.5-248.6-795.5-897.1-546.9-1447.6s897.1-795.5,1447.6-546.9c242.6,109.5,436.8,304.3,546.9,546.9L5097.2,3531
		C4557.6,2824.4,3718,2411.3,2829.3,2414.9z"/>
</g>
</svg>
