<svg width="666" height="666" viewBox="0 0 666 666" fill="none" xmlns="http://www.w3.org/2000/svg">
<g clip-path="url(#clip0_1151_2)">
<circle cx="333" cy="333" r="330" fill="#E9E4D8"/>
<path d="M140.622 484V238.545H186.805V277.537H189.361C193.836 264.327 201.719 253.94 213.012 246.376C224.411 238.705 237.302 234.87 251.684 234.87C254.667 234.87 258.182 234.977 262.231 235.19C266.385 235.403 269.635 235.669 271.979 235.989V281.692C270.061 281.159 266.652 280.573 261.751 279.934C256.851 279.188 251.95 278.815 247.05 278.815C235.757 278.815 225.689 281.212 216.847 286.006C208.111 290.694 201.187 297.246 196.073 305.662C190.959 313.972 188.403 323.453 188.403 334.107V484H140.622ZM335.213 484V451.241L468.168 282.331V280.094H339.528V238.545H527.774V273.382L399.933 440.214V442.452H532.248V484H335.213Z" fill="black"/>
</g>
<defs>
<clipPath id="clip0_1151_2">
<rect width="666" height="666" fill="white"/>
</clipPath>
</defs>
</svg>
